<svg width="146" height="90" viewBox="0 0 146 90" fill="none" xmlns="http://www.w3.org/2000/svg">
<rect width="146" height="89.9146" fill="white"/>
<path d="M56.1403 61.3416L44.9993 46.7073V61.3416H36.9269V28.2019H44.9993V42.7418L56.0459 28.2019H65.5346L52.6941 44.4413L66.0066 61.3416H56.1403ZM89.9061 44.3469C91.8259 44.756 93.368 45.7159 94.5324 47.2265C95.6969 48.7057 96.2791 50.4052 96.2791 52.3249C96.2791 55.0944 95.3035 57.2975 93.3523 58.934C91.4325 60.539 88.7417 61.3416 85.2798 61.3416H69.843V28.2019H84.7605C88.128 28.2019 90.7559 28.973 92.6441 30.5151C94.5639 32.0572 95.5238 34.1501 95.5238 36.7937C95.5238 38.7449 95.0045 40.3657 93.966 41.6561C92.9589 42.9464 91.6056 43.8433 89.9061 44.3469ZM77.9154 41.6089H83.2027C84.5245 41.6089 85.5316 41.3256 86.2239 40.7591C86.9478 40.1612 87.3097 39.2957 87.3097 38.1627C87.3097 37.0297 86.9478 36.1643 86.2239 35.5663C85.5316 34.9683 84.5245 34.6694 83.2027 34.6694H77.9154V41.6089ZM83.8636 54.8269C85.2168 54.8269 86.2554 54.5279 86.9793 53.93C87.7346 53.3006 88.1122 52.4036 88.1122 51.2392C88.1122 50.0747 87.7188 49.162 86.9321 48.5011C86.1767 47.8402 85.1224 47.5098 83.7692 47.5098H77.9154V54.8269H83.8636Z" fill="#051916"/>
<path d="M104.738 61.7192C103.322 61.7192 102.157 61.3101 101.244 60.4918C100.363 59.6421 99.9226 58.6035 99.9226 57.3761C99.9226 56.1173 100.363 55.063 101.244 54.2132C102.157 53.3635 103.322 52.9386 104.738 52.9386C106.122 52.9386 107.255 53.3635 108.137 54.2132C109.049 55.063 109.506 56.1173 109.506 57.3761C109.506 58.6035 109.049 59.6421 108.137 60.4918C107.255 61.3101 106.122 61.7192 104.738 61.7192Z" fill="#F1785E"/>
</svg>
