<svg width="23" height="23" viewBox="0 0 23 23" fill="none" xmlns="http://www.w3.org/2000/svg">
<path d="M4.32804 0C1.94796 0 0 1.94791 0 4.32804V17.7587C0 20.1388 1.94791 22.086 4.32804 22.086H17.7587C20.1388 22.086 22.086 20.1388 22.086 17.7587V4.32804C22.086 1.94796 20.1388 0 17.7587 0H4.32804ZM5.4166 3.64464C6.5578 3.64464 7.26073 4.39382 7.28243 5.3786C7.28243 6.34164 6.55776 7.11187 5.39453 7.11187H5.37312C4.25364 7.11187 3.53007 6.34169 3.53007 5.3786C3.53007 4.39384 4.27554 3.64464 5.41658 3.64464H5.4166ZM15.251 8.24739C17.4457 8.24739 19.091 9.68189 19.091 12.7645V18.5194H15.7556V13.1504C15.7556 11.8012 15.2728 10.8808 14.0658 10.8808C13.1443 10.8808 12.595 11.5012 12.3539 12.1005C12.2658 12.3149 12.2441 12.6144 12.2441 12.9143V18.5194H8.90872C8.90872 18.5194 8.95249 9.42448 8.90872 8.48276H12.2448V9.90404C12.6881 9.22018 13.4809 8.24737 15.251 8.24737V8.24739ZM3.72681 8.48349H7.06223V18.5194H3.72681V8.48349V8.48349Z" fill="#F1785E"/>
</svg>
