<svg width="23" height="23" viewBox="0 0 23 23" fill="none" xmlns="http://www.w3.org/2000/svg">
<path fill-rule="evenodd" clip-rule="evenodd" d="M11.043 0C4.94175 0 0 5.06675 0 11.3223C0 16.3325 3.16106 20.5642 7.55066 22.0644C8.10281 22.1635 8.30987 21.8238 8.30987 21.5266C8.30987 21.2577 8.29607 20.3661 8.29607 19.4178C5.52151 19.9415 4.80371 18.7243 4.58285 18.0874C4.45862 17.7619 3.92027 16.7571 3.45094 16.4882C3.06444 16.2759 2.51229 15.7522 3.43714 15.7381C4.30678 15.7239 4.92795 16.5589 5.135 16.8986C6.12888 18.6111 7.71631 18.1299 8.35128 17.8327C8.44791 17.0967 8.73779 16.6014 9.05528 16.3183C6.5982 16.0353 4.0307 15.0587 4.0307 10.7279C4.0307 9.49661 4.45862 8.4776 5.16261 7.68504C5.05218 7.40198 4.66568 6.24144 5.27304 4.68462C5.27304 4.68462 6.19789 4.38741 8.30987 5.84516C9.19331 5.5904 10.132 5.46303 11.0706 5.46303C12.0093 5.46303 12.9479 5.5904 13.8314 5.84516C15.9434 4.37325 16.8682 4.68462 16.8682 4.68462C17.4756 6.24144 17.0891 7.40198 16.9786 7.68504C17.6826 8.4776 18.1106 9.48246 18.1106 10.7279C18.1106 15.0729 15.5292 16.0353 13.0722 16.3183C13.4725 16.6721 13.8176 17.3515 13.8176 18.413C13.8176 19.9273 13.8038 21.1445 13.8038 21.5266C13.8038 21.8238 14.0108 22.1776 14.563 22.0644C16.7552 21.3055 18.6601 19.861 20.0096 17.934C21.3592 16.007 22.0854 13.6946 22.086 11.3223C22.086 5.06675 17.1443 0 11.043 0Z" fill="#051916"/>
</svg>
